<?xml version="1.0" encoding="UTF-8"?>
<!DOCTYPE svg PUBLIC "-//W3C//DTD SVG 1.1//EN" "http://www.w3.org/Graphics/SVG/1.1/DTD/svg11.dtd">
<!-- Creator: CorelDRAW X8 -->
<svg xmlns="http://www.w3.org/2000/svg" xml:space="preserve" width="69.504mm" height="22.3025mm" version="1.1" style="shape-rendering:geometricPrecision; text-rendering:geometricPrecision; image-rendering:optimizeQuality; fill-rule:evenodd; clip-rule:evenodd"
viewBox="0 0 1749 561"
 xmlns:xlink="http://www.w3.org/1999/xlink">
 <defs>
  <style type="text/css">
   <![CDATA[
    .fil0 {fill:#FEFEFE;fill-rule:nonzero}
   ]]>
  </style>
 </defs>
 <g id="Слой_x0020_1">
  <metadata id="CorelCorpID_0Corel-Layer"/>
  <g id="_1807601822032">
   <g>
    <polygon class="fil0" points="216,100 277,100 277,226 322,226 322,100 384,100 384,60 216,60 "/>
    <polygon class="fil0" points="157,226 202,226 202,60 157,60 "/>
    <polygon class="fil0" points="0,226 45,226 45,226 45,60 0,60 "/>
    <polygon class="fil0" points="113,60 45,226 91,226 157,60 139,60 "/>
    <polygon class="fil0" points="596,60 590,60 565,60 520,169 475,60 449,60 431,60 398,60 398,226 443,226 443,90 497,226 543,226 596,90 596,226 641,226 641,60 608,60 "/>
    <path class="fil0" d="M179 0c-12,0 -22,10 -22,22 0,12 10,22 22,22 13,0 23,-10 23,-22 0,-12 -10,-22 -23,-22z"/>
    <path class="fil0" d="M783 144c-1,26 -18,43 -43,43 0,0 0,0 -1,0 -13,0 -24,-4 -32,-12 -7,-8 -11,-20 -11,-34 1,-12 5,-23 12,-31 8,-7 19,-11 32,-11l0 0c12,0 23,4 31,12 8,8 12,20 12,33zm3 -74c-13,-8 -29,-12 -45,-12l0 0c-4,0 -8,1 -13,1 -24,3 -43,13 -57,30 -14,17 -19,36 -18,61 1,18 7,34 17,46 17,21 41,31 74,32l0 0 0 0c2,0 3,-1 5,-1 4,0 11,-1 17,-3 17,-4 32,-14 43,-27 10,-13 16,-30 17,-48 2,-36 -12,-62 -40,-79z"/>
   </g>
   <path class="fil0" d="M81 392l0 -78 -15 0 0 78 -51 0 0 -78 -15 0 0 91 77 0 0 21 13 0 1 -19c0,-6 0,-11 1,-15l-11 0zm94 -64l0 -14 -68 0 0 91 68 0 0 -13 -53 0 0 -27 52 0 0 -12 -52 0 0 -25 53 0zm86 -14l0 38 -52 0 0 -38 -15 0 0 91 15 0 0 -40 52 0 0 40 15 0 0 -91 -15 0zm29 14l32 0 0 77 15 0 0 -77 32 0 0 -14 -79 0 0 14zm144 -14l-51 0 0 91 15 0 0 -33 33 0c22,0 35,-7 35,-29 0,-20 -12,-29 -32,-29zm-1 46l-35 0 0 -33 35 0c14,0 18,6 18,16 0,10 -4,17 -18,17zm132 47c28,0 48,-10 51,-34l-16 0c-3,15 -15,21 -35,21 -28,0 -36,-13 -36,-34 0,-21 8,-34 36,-34 20,0 31,6 35,21l16 0c-4,-24 -23,-34 -51,-34 -33,0 -52,14 -52,47 0,33 19,47 52,47zm62 -47c0,33 19,47 52,47 34,0 52,-14 52,-47 0,-33 -18,-47 -52,-47 -33,0 -52,14 -52,47zm16 0c0,-21 9,-34 36,-34 28,0 36,13 36,34 0,21 -8,34 -36,34 -27,0 -36,-13 -36,-34zm186 32l0 -78 -15 0 0 78 -51 0 0 -78 -15 0 0 91 77 0 0 21 14 0 0 -19c0,-6 0,-11 1,-15l-11 0zm26 13l28 0 29 -60c3,-6 7,-16 10,-22l3 0 0 82 15 0 0 -91 -27 0 -28 60c-3,6 -9,17 -11,23l-4 0 0 -83 -15 0 0 91zm176 0l17 0 -34 -91 -27 0 -34 91 16 0 7 -20 48 0 7 20zm-42 -55c4,-11 7,-20 9,-27l4 0c3,7 6,16 10,27l8 23 -40 0 9 -23zm66 56c20,0 25,-14 27,-43 1,-10 2,-26 3,-36l38 0 0 78 15 0 0 -91 -67 0c-1,10 -2,35 -3,49 -2,20 -5,30 -15,30l-3 0 0 13c1,0 3,0 5,0zm156 -59l-35 0 0 -33 -15 0 0 91 48 0c22,0 35,-7 35,-29 0,-20 -12,-29 -33,-29zm-1 46l-34 0 0 -33 34 0c14,0 18,6 18,16 0,11 -4,17 -18,17zm115 -79l0 38 -51 0 0 -38 -16 0 0 91 16 0 0 -40 51 0 0 40 15 0 0 -91 -15 0zm87 33l-34 0 0 -33 -15 0 0 91 47 0c22,0 35,-7 35,-29 0,-20 -12,-29 -33,-29zm45 -33l0 91 15 0 0 -91 -15 0zm-46 79l-33 0 0 -33 33 0c14,0 18,6 18,16 0,11 -4,17 -18,17zm161 12l-35 -46 35 -45 -18 0 -25 35 -26 -35 -18 0 35 46 -36 45 17 0 27 -35 26 35 18 0zm-1572 156l28 0 29 -61c3,-5 7,-15 10,-21l3 0 0 82 15 0 0 -91 -27 0 -28 60c-3,5 -9,16 -12,22l-3 0 0 -82 -15 0 0 91zm212 -91l-66 0 0 91 15 0 0 -78 51 0 0 -13zm78 0l-20 47c-4,10 -6,15 -8,20 0,0 0,0 0,0l-2 0c-3,-7 -6,-14 -10,-22l-20 -45 -17 0 37 77c-2,1 -5,1 -8,1l-11 0 0 13 8 0c25,0 29,-5 41,-32l26 -59 -16 0zm29 91l14 0 0 -82 3 0c6,26 12,54 18,82l24 0c6,-28 12,-56 17,-82l4 0 0 82 14 0 0 -91 -29 0c-5,25 -12,58 -16,82l-4 0c-4,-24 -11,-57 -16,-82l-29 0 0 91zm185 0l16 0 -34 -91 -27 0 -34 91 17 0 7 -20 48 0 7 20zm-42 -55c3,-11 7,-20 9,-27l4 0c2,7 6,16 9,27l9 23 -40 0 9 -23zm138 -36l0 38 -52 0 0 -38 -15 0 0 91 15 0 0 -40 52 0 0 40 15 0 0 -91 -15 0zm37 91l28 0 29 -61c3,-5 8,-15 10,-21l4 0 0 82 15 0 0 -91 -28 0 -28 60c-3,5 -9,16 -11,22l-4 0 0 -82 -15 0 0 91zm100 -78l32 0 0 78 15 0 0 -78 32 0 0 -13 -79 0 0 13zm153 78l16 0 -34 -91 -27 0 -34 91 17 0 7 -20 48 0 7 20zm-43 -55c4,-11 7,-20 10,-27l4 0c2,7 5,16 9,27l8 23 -39 0 8 -23zm122 -36l-51 0 0 91 16 0 0 -33 33 0c22,0 35,-8 35,-29 0,-20 -12,-29 -33,-29zm-1 45l-34 0 0 -33 34 0c14,0 18,7 18,17 0,10 -4,16 -18,16zm115 -45l0 38 -51 0 0 -38 -16 0 0 91 16 0 0 -40 51 0 0 40 16 0 0 -91 -16 0zm87 33l-34 0 0 -33 -15 0 0 91 47 0c22,0 35,-7 35,-29 0,-20 -12,-29 -33,-29zm45 -33l0 91 15 0 0 -91 -15 0zm-46 79l-33 0 0 -33 33 0c14,0 18,6 18,16 0,10 -4,17 -18,17zm161 12l-35 -46 35 -45 -17 0 -26 34 -26 -34 -18 0 35 45 -36 46 17 0 27 -35 27 35 17 0zm118 -91l0 38 -52 0 0 -38 -16 0 0 91 16 0 0 -40 52 0 0 40 15 0 0 -91 -15 0zm105 91l17 0 -34 -91 -27 0 -34 91 16 0 7 -20 48 0 7 20zm-42 -55c4,-11 7,-20 9,-27l4 0c3,7 6,16 10,27l8 23 -39 0 8 -23zm133 -36l-20 47c-5,10 -6,15 -9,20 0,0 0,0 0,0l-1 0c-3,-7 -7,-14 -11,-22l-20 -45 -17 0 37 77c-2,1 -5,1 -8,1l-11 0 0 13 9 0c24,0 29,-5 41,-32l26 -59 -16 0zm61 44l43 -44 -17 0 -37 38 -7 0 0 -38 -15 0 0 91 15 0 0 -41 6 0 38 41 18 0 -44 -47z"/>
  </g>
 </g>
</svg>
