<svg width="600" height="300" viewBox="0 0 600 300" fill="none" xmlns="http://www.w3.org/2000/svg">
  <rect width="600" height="300" fill="#F5EBD7"/>
  <rect x="18" y="18" width="564" height="264" rx="18" fill="#FAF4EA" stroke="#D7C6AB" stroke-width="8"/>
  <path d="M26 94C74 72 121 58 166 64C203 69 236 103 281 110C327 117 354 89 400 83C460 76 508 103 574 98" stroke="#6F8F49" stroke-width="8" stroke-linecap="round"/>
  <path d="M39 183C102 190 153 169 198 151C240 135 281 131 317 141C356 152 373 182 427 188C481 194 529 169 570 152" stroke="#E25B63" stroke-width="8" stroke-linecap="round"/>
  <path d="M63 49L86 249" stroke="#5A6B7E" stroke-width="5" stroke-linecap="round"/>
  <path d="M129 31L147 265" stroke="#5A6B7E" stroke-width="5" stroke-linecap="round"/>
  <path d="M209 34L206 273" stroke="#5A6B7E" stroke-width="5" stroke-linecap="round"/>
  <path d="M289 22L270 278" stroke="#5A6B7E" stroke-width="5" stroke-linecap="round"/>
  <path d="M373 35L352 275" stroke="#5A6B7E" stroke-width="5" stroke-linecap="round"/>
  <path d="M470 37L454 260" stroke="#5A6B7E" stroke-width="5" stroke-linecap="round"/>
  <path d="M530 52L513 244" stroke="#5A6B7E" stroke-width="5" stroke-linecap="round"/>
  <path d="M29 134H579" stroke="#5A6B7E" stroke-width="4" stroke-linecap="round"/>
  <path d="M29 214H579" stroke="#5A6B7E" stroke-width="4" stroke-linecap="round"/>
  <circle cx="352" cy="156" r="23" fill="#E1B36D" stroke="#D76C50" stroke-width="8"/>
  <circle cx="352" cy="156" r="8" fill="#FAF4EA"/>
</svg>
